<svg width="145" height="61" viewBox="0 0 145 61" fill="none" xmlns="http://www.w3.org/2000/svg">
<path d="M19.6364 56L6.81823 9.45454H8.36369L20.5455 53.7273H20.7273L32.5455 9.45454H34.5455L46.3637 53.7273H46.5455L58.7273 9.45454H60.2728L47.4546 56H45.4546L33.6364 11.7273H33.4546L21.6364 56H19.6364Z" fill="url(#paint0_linear_6_6)"/>
<path d="M10.9817 45.3251L22.7732 0.0663795L24.0697 0.814959L12.8452 43.8587L12.9978 43.9467L44.3574 12.528L46.0353 13.4968L34.5057 56.3643L34.6582 56.4524L66.3229 25.2098L67.6195 25.9584L34.3201 58.7995L32.6422 57.8307L44.1717 14.9632L44.0192 14.8751L12.6596 46.2938L10.9817 45.3251Z" fill="url(#paint1_linear_6_6)"/>
<path d="M33.4817 60.6461L0.182251 27.805L1.47883 27.0564L33.1435 58.299L33.2961 58.2109L21.7665 15.3434L23.4444 14.3746L54.804 45.7933L54.9565 45.7053L43.732 2.66155L45.0286 1.91297L56.8201 47.1716L55.1422 48.1404L23.7825 16.7217L23.63 16.8098L35.1596 59.6773L33.4817 60.6461Z" fill="url(#paint2_linear_6_6)"/>
<path d="M79.4886 41L74.6818 23.5455H75.2614L79.8295 40.1477H79.8977L84.3295 23.5455H85.0795L89.5114 40.1477H89.5795L94.1477 23.5455H94.7273L89.9205 41H89.1705L84.7386 24.3977H84.6705L80.2386 41H79.4886ZM101.407 41.2727C100.265 41.2727 99.2649 40.9744 98.407 40.3778C97.5547 39.7812 96.8928 38.9716 96.4212 37.9489C95.9496 36.9261 95.7138 35.7727 95.7138 34.4886C95.7138 33.2045 95.9496 32.0511 96.4212 31.0284C96.8984 30.0057 97.5462 29.196 98.3643 28.5994C99.1825 28.0028 100.106 27.7045 101.134 27.7045C101.896 27.7045 102.6 27.8665 103.248 28.1903C103.901 28.5142 104.469 28.9631 104.952 29.5369C105.435 30.1108 105.81 30.7727 106.077 31.5227C106.35 32.267 106.487 33.0625 106.487 33.9091V34.4545H95.9865V33.9091H105.941C105.941 32.858 105.725 31.9062 105.293 31.054C104.862 30.196 104.282 29.5142 103.555 29.0085C102.827 28.5028 102.021 28.25 101.134 28.25C100.237 28.25 99.424 28.517 98.6967 29.0511C97.9695 29.5852 97.3871 30.3125 96.9496 31.233C96.5121 32.1534 96.282 33.1932 96.2592 34.3523V34.4205C96.2592 35.5625 96.4581 36.6136 96.8558 37.5739C97.2592 38.5284 97.8445 39.2926 98.6115 39.8665C99.3786 40.4403 100.31 40.7273 101.407 40.7273C102.214 40.7273 102.89 40.5852 103.435 40.3011C103.987 40.017 104.427 39.6903 104.756 39.321C105.092 38.9517 105.339 38.6364 105.498 38.375L105.941 38.6818C105.748 39.0114 105.458 39.3778 105.072 39.7812C104.685 40.1847 104.191 40.5341 103.589 40.8295C102.987 41.125 102.259 41.2727 101.407 41.2727ZM110.759 41V23.5455H111.304V31.25H111.372C111.599 30.5227 111.929 29.8949 112.361 29.3665C112.793 28.8324 113.301 28.4233 113.886 28.1392C114.472 27.8494 115.111 27.7045 115.804 27.7045C116.827 27.7045 117.716 28.0028 118.472 28.5994C119.227 29.196 119.813 30.0057 120.227 31.0284C120.642 32.0511 120.849 33.2045 120.849 34.4886C120.849 35.7784 120.642 36.9347 120.227 37.9574C119.818 38.9801 119.236 39.7898 118.48 40.3864C117.73 40.9773 116.838 41.2727 115.804 41.2727C115.105 41.2727 114.463 41.1278 113.878 40.8381C113.298 40.5483 112.795 40.1392 112.369 39.6108C111.943 39.0767 111.611 38.4489 111.372 37.7273H111.304V41H110.759ZM111.304 34.4886C111.304 35.6705 111.486 36.733 111.849 37.6761C112.213 38.6136 112.73 39.358 113.401 39.9091C114.077 40.4545 114.878 40.7273 115.804 40.7273C116.73 40.7273 117.528 40.4545 118.199 39.9091C118.875 39.358 119.395 38.6136 119.759 37.6761C120.122 36.733 120.304 35.6705 120.304 34.4886C120.304 33.3068 120.119 32.2472 119.75 31.3097C119.386 30.3665 118.866 29.6222 118.19 29.0767C117.52 28.5256 116.724 28.25 115.804 28.25C114.884 28.25 114.085 28.5256 113.409 29.0767C112.739 29.6222 112.219 30.3665 111.849 31.3097C111.486 32.2472 111.304 33.3068 111.304 34.4886ZM129.602 41.2727C128.46 41.2727 127.46 40.9744 126.602 40.3778C125.75 39.7812 125.088 38.9716 124.616 37.9489C124.145 36.9261 123.909 35.7727 123.909 34.4886C123.909 33.2045 124.145 32.0511 124.616 31.0284C125.094 30.0057 125.741 29.196 126.56 28.5994C127.378 28.0028 128.301 27.7045 129.33 27.7045C130.091 27.7045 130.795 27.8665 131.443 28.1903C132.097 28.5142 132.665 28.9631 133.148 29.5369C133.631 30.1108 134.006 30.7727 134.273 31.5227C134.545 32.267 134.682 33.0625 134.682 33.9091V34.4545H124.182V33.9091H134.136C134.136 32.858 133.92 31.9062 133.489 31.054C133.057 30.196 132.477 29.5142 131.75 29.0085C131.023 28.5028 130.216 28.25 129.33 28.25C128.432 28.25 127.619 28.517 126.892 29.0511C126.165 29.5852 125.582 30.3125 125.145 31.233C124.707 32.1534 124.477 33.1932 124.455 34.3523V34.4205C124.455 35.5625 124.653 36.6136 125.051 37.5739C125.455 38.5284 126.04 39.2926 126.807 39.8665C127.574 40.4403 128.506 40.7273 129.602 40.7273C130.409 40.7273 131.085 40.5852 131.631 40.3011C132.182 40.017 132.622 39.6903 132.952 39.321C133.287 38.9517 133.534 38.6364 133.693 38.375L134.136 38.6818C133.943 39.0114 133.653 39.3778 133.267 39.7812C132.881 40.1847 132.386 40.5341 131.784 40.8295C131.182 41.125 130.455 41.2727 129.602 41.2727ZM138.545 41V27.9091H139.09V29.9886H139.158C139.465 29.3068 139.968 28.7614 140.667 28.3523C141.371 27.9432 142.175 27.7386 143.079 27.7386C143.147 27.7386 143.192 27.7386 143.215 27.7386C143.238 27.7386 143.283 27.7386 143.352 27.7386V28.2841C143.283 28.2841 143.238 28.2841 143.215 28.2841C143.192 28.2841 143.147 28.2841 143.079 28.2841C142.306 28.2841 141.619 28.4517 141.016 28.7869C140.42 29.1222 139.948 29.5852 139.602 30.1761C139.261 30.767 139.09 31.4432 139.09 32.2045V41H138.545Z" fill="white"/>
<defs>
<linearGradient id="paint0_linear_6_6" x1="34.4742" y1="-20.048" x2="34.4742" y2="80.1688" gradientUnits="userSpaceOnUse">
<stop stop-color="white"/>
<stop offset="1" stop-color="#DC02FF" stop-opacity="0"/>
</linearGradient>
<linearGradient id="paint1_linear_6_6" x1="50.1542" y1="0.280578" x2="14.4181" y2="71.733" gradientUnits="userSpaceOnUse">
<stop stop-color="white"/>
<stop offset="1" stop-color="#DC02FF" stop-opacity="0"/>
</linearGradient>
<linearGradient id="paint2_linear_6_6" x1="15.451" y1="1.77405" x2="52.951" y2="66.726" gradientUnits="userSpaceOnUse">
<stop stop-color="white"/>
<stop offset="1" stop-color="#DC02FF" stop-opacity="0"/>
</linearGradient>
</defs>
</svg>
