<svg width="179" height="61" viewBox="0 0 179 61" fill="none" xmlns="http://www.w3.org/2000/svg">
<path d="M17.8856 53.7052L6.10094 10.6784H7.52179L18.7214 51.6042H18.8886L29.7539 10.6784H31.5927L42.458 51.6042H42.6251L53.8248 10.6784H55.2456L43.4609 53.7052H41.6222L30.7569 12.7794H30.5897L19.7244 53.7052H17.8856Z" fill="url(#paint0_linear_6_6)"/>
<path d="M9.9287 43.8372L20.7695 2L21.9615 2.69199L11.642 42.4817L11.7822 42.5631L40.6134 13.5196L42.1561 14.4151L31.5561 54.042L31.6963 54.1234L60.808 25.2427L62 25.9347L31.3854 56.293L29.8428 55.3975L40.4428 15.7706L40.3025 15.6892L11.4713 44.7327L9.9287 43.8372Z" fill="url(#paint1_linear_6_6)"/>
<path d="M30.6146 58L0 27.6417L1.19204 26.9497L30.3037 55.8304L30.4439 55.7489L19.8439 16.1221L21.3866 15.2266L50.2178 44.2701L50.358 44.1887L40.0385 4.39898L41.2305 3.70699L52.0713 45.5442L50.5287 46.4397L21.6975 17.3962L21.5572 17.4776L32.1572 57.1045L30.6146 58Z" fill="url(#paint2_linear_6_6)"/>
<path d="M78.7987 44L71.6012 17.8182H73.2631L79.6552 41.5327H79.8086L86.0984 17.8182H88.0415L94.3313 41.5327H94.4847L100.877 17.8182H102.526L95.3285 44H93.4876L87.1339 20.4389H86.9933L80.6396 44H78.7987ZM112.533 44.4091C110.76 44.4091 109.217 43.9702 107.905 43.0923C106.592 42.2145 105.578 41.0128 104.862 39.4872C104.146 37.9616 103.788 36.223 103.788 34.2713C103.788 32.3111 104.146 30.5639 104.862 29.0298C105.587 27.4957 106.58 26.2855 107.841 25.3991C109.102 24.5128 110.543 24.0696 112.162 24.0696C113.261 24.0696 114.301 24.2912 115.281 24.7344C116.27 25.169 117.139 25.7997 117.889 26.6264C118.648 27.4531 119.24 28.4503 119.666 29.6179C120.101 30.7855 120.318 32.098 120.318 33.5554V34.527H104.773V33.108H118.759C118.759 31.6847 118.469 30.402 117.889 29.2599C117.31 28.1179 116.521 27.2102 115.524 26.5369C114.527 25.8636 113.406 25.527 112.162 25.527C110.858 25.527 109.695 25.8935 108.672 26.6264C107.658 27.3509 106.852 28.331 106.256 29.5668C105.668 30.8026 105.361 32.1832 105.335 33.7088V34.348C105.335 35.9844 105.621 37.4545 106.192 38.7585C106.771 40.054 107.598 41.081 108.672 41.8395C109.746 42.5895 111.033 42.9645 112.533 42.9645C113.607 42.9645 114.523 42.7855 115.281 42.4276C116.048 42.0611 116.675 41.6179 117.161 41.098C117.646 40.5781 118.013 40.0753 118.26 39.5895L119.679 40.1648C119.381 40.821 118.916 41.4773 118.286 42.1335C117.663 42.7812 116.871 43.3224 115.908 43.7571C114.953 44.1918 113.828 44.4091 112.533 44.4091ZM126.237 44V17.8182H127.784V28.7486H127.938C128.244 27.9048 128.679 27.1293 129.241 26.4219C129.804 25.7145 130.503 25.1477 131.338 24.7216C132.173 24.2869 133.149 24.0696 134.266 24.0696C135.842 24.0696 137.219 24.5085 138.395 25.3864C139.571 26.2557 140.483 27.4574 141.131 28.9915C141.778 30.517 142.102 32.2642 142.102 34.233C142.102 36.2188 141.778 37.9787 141.131 39.5128C140.483 41.0384 139.575 42.2358 138.408 43.1051C137.24 43.9744 135.864 44.4091 134.278 44.4091C133.162 44.4091 132.186 44.196 131.351 43.7699C130.516 43.3352 129.817 42.7642 129.254 42.0568C128.692 41.3409 128.253 40.5611 127.938 39.7173H127.759V44H126.237ZM127.771 34.2202C127.771 35.8906 128.023 37.3864 128.526 38.7074C129.037 40.0199 129.77 41.0597 130.724 41.8267C131.679 42.5852 132.821 42.9645 134.151 42.9645C135.497 42.9645 136.648 42.581 137.602 41.8139C138.557 41.0384 139.286 39.9901 139.788 38.669C140.3 37.348 140.555 35.8651 140.555 34.2202C140.555 32.5753 140.3 31.0966 139.788 29.7841C139.286 28.4716 138.557 27.4361 137.602 26.6776C136.648 25.9105 135.497 25.527 134.151 25.527C132.821 25.527 131.679 25.9062 130.724 26.6648C129.77 27.4148 129.037 28.446 128.526 29.7585C128.023 31.0625 127.771 32.5497 127.771 34.2202ZM155.142 44.4091C153.369 44.4091 151.827 43.9702 150.514 43.0923C149.202 42.2145 148.188 41.0128 147.472 39.4872C146.756 37.9616 146.398 36.223 146.398 34.2713C146.398 32.3111 146.756 30.5639 147.472 29.0298C148.196 27.4957 149.189 26.2855 150.45 25.3991C151.712 24.5128 153.152 24.0696 154.771 24.0696C155.871 24.0696 156.911 24.2912 157.891 24.7344C158.879 25.169 159.749 25.7997 160.499 26.6264C161.257 27.4531 161.849 28.4503 162.276 29.6179C162.71 30.7855 162.928 32.098 162.928 33.5554V34.527H147.382V33.108H161.368C161.368 31.6847 161.078 30.402 160.499 29.2599C159.919 28.1179 159.131 27.2102 158.134 26.5369C157.136 25.8636 156.016 25.527 154.771 25.527C153.467 25.527 152.304 25.8935 151.281 26.6264C150.267 27.3509 149.462 28.331 148.865 29.5668C148.277 30.8026 147.97 32.1832 147.945 33.7088V34.348C147.945 35.9844 148.23 37.4545 148.801 38.7585C149.381 40.054 150.207 41.081 151.281 41.8395C152.355 42.5895 153.642 42.9645 155.142 42.9645C156.216 42.9645 157.132 42.7855 157.891 42.4276C158.658 42.0611 159.284 41.6179 159.77 41.098C160.256 40.5781 160.622 40.0753 160.869 39.5895L162.288 40.1648C161.99 40.821 161.526 41.4773 160.895 42.1335C160.273 42.7812 159.48 43.3224 158.517 43.7571C157.563 44.1918 156.438 44.4091 155.142 44.4091ZM168.297 44V24.3636H169.818V27.4318H169.959C170.385 26.4261 171.105 25.6207 172.119 25.0156C173.134 24.402 174.288 24.0952 175.584 24.0952C175.72 24.0952 175.857 24.0952 175.993 24.0952C176.129 24.0952 176.257 24.0994 176.376 24.108V25.6804C176.274 25.6719 176.151 25.6591 176.006 25.642C175.869 25.6165 175.699 25.6037 175.494 25.6037C174.403 25.6037 173.432 25.8381 172.58 26.3068C171.736 26.7756 171.071 27.4233 170.585 28.25C170.099 29.0682 169.857 30.0057 169.857 31.0625V44H168.297Z" fill="black"/>
<defs>
<linearGradient id="paint0_linear_6_6" x1="31.5271" y1="-16.5937" x2="31.5271" y2="76.0469" gradientUnits="userSpaceOnUse">
<stop stop-color="white"/>
<stop offset="1" stop-color="#DC02FF" stop-opacity="0"/>
</linearGradient>
<linearGradient id="paint1_linear_6_6" x1="45.9429" y1="2.19801" x2="12.8004" y2="68.1041" gradientUnits="userSpaceOnUse">
<stop stop-color="white"/>
<stop offset="1" stop-color="#DC02FF" stop-opacity="0"/>
</linearGradient>
<linearGradient id="paint2_linear_6_6" x1="14.0377" y1="3.57857" x2="48.797" y2="63.456" gradientUnits="userSpaceOnUse">
<stop stop-color="white"/>
<stop offset="1" stop-color="#DC02FF" stop-opacity="0"/>
</linearGradient>
</defs>
</svg>
